<?xml version="1.0" encoding="utf-8"?>
<!-- Generator: Adobe Illustrator 19.1.0, SVG Export Plug-In . SVG Version: 6.00 Build 0)  -->
<svg version="1.1"
	 id="svg95827" xmlns:svg="http://www.w3.org/2000/svg" xmlns:dc="http://purl.org/dc/elements/1.1/" xmlns:cc="http://creativecommons.org/ns#" xmlns:rdf="http://www.w3.org/1999/02/22-rdf-syntax-ns#"
	 xmlns="http://www.w3.org/2000/svg" xmlns:xlink="http://www.w3.org/1999/xlink" x="0px" y="0px" viewBox="143.5 37.1 320 320"
	 style="enable-background:new 143.5 37.1 320 320;" xml:space="preserve">
<style type="text/css">
	.st0{fill:#231F20;stroke:#F4FAFA;stroke-width:0.35;stroke-miterlimit:10;}
</style>
<path id="path95855-8" class="st0" d="M277.1,201.6l-16.3-23.9L245,201.9l6.4-27.8l-29.3,6.5l25.3-15.4l-25.6-14.9l29.4,6l-6.9-27.7
	l16.3,23.9l15.8-24.2l-6.4,27.8l29.3-6.5L274,165.1l25.6,14.9l-29.4-6L277.1,201.6z"/>
<path id="path95855-9-4" class="st0" d="M336.6,218.8l-21.7,2.1l12.6,16.7l-17.9-12.3l-3.9,19l-3.6-19.5l-18.1,10.3l12.8-15.2
	l-21.7-4.5l21.7-2.1l-12.6-16.7l17.9,12.3l3.9-19l3.6,19.5l18.1-10.3L315,214.3L336.6,218.8z"/>
<path id="path95855-3-5" class="st0" d="M450.8,352.8l-7-10.5l-6.8,10.6l2.7-12.2l-12.5,2.9l10.8-6.8l-10.9-6.6l12.6,2.6l-3-12.1
	l7,10.5l6.8-10.6l-2.7,12.2l12.5-2.9l-10.8,6.8l10.9,6.6l-12.6-2.6L450.8,352.8z"/>
<path id="path95855-3-4" class="st0" d="M254.9,298.6l-7-10.5l-6.8,10.6l2.7-12.2l-12.5,2.9l10.8-6.8l-10.9-6.6l12.6,2.6l-3-12.1
	l7,10.5l6.8-10.6l-2.7,12.2l12.5-2.9l-10.8,6.8l10.9,6.6l-12.6-2.6L254.9,298.6z"/>
<path id="path95855-3-9" class="st0" d="M370.8,145.2l-2.6-11.8l6.8,10.3l7.4-10l-3.3,11.6l13.1-2.3l-11.5,6.1l11.1,6.7l-13-3
	l2.6,11.8l-6.8-10.3l-7.4,10l3.3-11.6l-13.1,2.3l11.5-6.1l-11.1-6.7L370.8,145.2z"/>
<path id="path95855-5-4" class="st0" d="M325.4,139.5l-7.4-3.9l-2.8,7.4l-0.5-7.2l-8.8,4.7l6.7-6.4l-9.6-0.7l10-1.8l-4.8-5.8
	l7.4,3.9l2.8-7.4l0.5,7.2l8.8-4.7l-6.7,6.4l9.6,0.7l-10,1.8L325.4,139.5z"/>
<path id="path95855-5-5" class="st0" d="M398,87.6l-5.5-6l-5.4,6.1l2.2-7l-10,1.6l8.6-3.9l-8.7-3.7l10,1.5l-2.4-6.9l5.5,6l5.4-6.1
	l-2.2,7l10-1.6l-8.6,3.9l8.7,3.7l-10-1.5L398,87.6z"/>
<path id="path95855-5-0" class="st0" d="M425.8,72.5l-5-9.7l-4.8,9.8l2-11.2l-9,2.6l7.7-6.2l-7.8-6l9,2.4l-2.1-11.2l5,9.7l4.8-9.8
	l-2,11.2l9-2.6l-7.7,6.2l7.8,6l-9-2.4L425.8,72.5z"/>
<path id="path95855-5-2" class="st0" d="M177.8,332.1l-5.5-6l-5.4,6.1l2.2-7l-10,1.6l8.6-3.9l-8.7-3.7l10,1.5l-2.4-6.9l5.5,6
	l5.4-6.1l-2.2,7l10-1.6l-8.6,3.9l8.7,3.7l-10-1.5L177.8,332.1z"/>
<path id="path95855-5-23" class="st0" d="M223.4,216.3l-5.5-6l-5.4,6.1l2.2-7l-10,1.6l8.6-3.9l-8.7-3.7l10,1.5l-2.4-6.9l5.5,6
	l5.4-6.1l-2.2,7l10-1.6l-8.6,3.9l8.7,3.7l-10-1.5L223.4,216.3z"/>
<path id="path95855-5-6" class="st0" d="M377.7,274.1l-5.5-6l-5.4,6.1l2.2-7l-10,1.6l8.6-3.9l-8.7-3.7l10,1.5l-2.4-6.9l5.5,6
	l5.4-6.1l-2.2,7l10-1.6l-8.6,3.9l8.7,3.7l-10-1.5L377.7,274.1z"/>
</svg>
