<?xml version="1.0" encoding="utf-8"?>
<!-- Generator: Adobe Illustrator 19.1.0, SVG Export Plug-In . SVG Version: 6.00 Build 0)  -->
<svg version="1.1" id="Layer_1" xmlns="http://www.w3.org/2000/svg" xmlns:xlink="http://www.w3.org/1999/xlink" x="0px" y="0px"
	 viewBox="0 0 320 320" style="enable-background:new 0 0 320 320;" xml:space="preserve">
<style type="text/css">
	.st0{fill:#231F20;stroke:#F4FAFA;stroke-width:0.35;stroke-miterlimit:10;}
</style>
<path id="path95855-9-4" class="st0" d="M73.7,112.9L52,115l12.6,16.7l-17.9-12.3l-3.9,19L39.3,119l-18.1,10.3L34,114l-21.7-4.5
	l21.7-2.1L21.5,90.7L39.4,103l3.9-19l3.6,19.5l18.1-10.3l-12.8,15.2L73.7,112.9z"/>
<path id="path95855-3-4" class="st0" d="M151.7,138.3l-7-10.5l-6.8,10.6l2.7-12.2l-12.5,2.9l10.8-6.8l-10.9-6.6l12.6,2.6l-3-12.1
	l7,10.5l6.8-10.6l-2.7,12.2l12.5-2.9l-10.8,6.8l10.9,6.6l-12.6-2.6L151.7,138.3z"/>
<path id="path95855-3-4_1_" class="st0" d="M33.4,227l-7-10.5l-6.8,10.6l2.7-12.2l-12.5,2.9l10.8-6.8l-10.9-6.6l12.6,2.6l-3-12.1
	l7,10.5l6.8-10.6L30.4,207l12.5-2.9l-10.8,6.8l10.9,6.6l-12.6-2.6L33.4,227z"/>
<path id="path95855-3-4_2_" class="st0" d="M151.7,233.9l-7-10.5L138,234l2.7-12.2l-12.5,2.9l10.8-6.8l-10.9-6.6l12.6,2.6l-3-12.1
	l7,10.5l6.8-10.6l-2.7,12.2l12.5-2.9l-10.8,6.8l10.9,6.6l-12.6-2.6L151.7,233.9z"/>
<path id="path95855-3-4_3_" class="st0" d="M190,122.2l-7-10.5l-6.8,10.6l2.7-12.2l-12.5,2.9l10.8-6.8l-10.9-6.6l12.6,2.6l-3-12.1
	l7,10.5l6.8-10.6l-2.7,12.2l12.5-2.9l-10.8,6.8l10.9,6.6L187,110L190,122.2z"/>
<path id="path95855-5-2" class="st0" d="M236.5,93.1l-5.5-6l-5.4,6.1l2.2-7l-10,1.6l8.6-3.9l-8.7-3.7l10,1.5l-2.4-6.9l5.5,6l5.4-6.1
	l-2.2,7l10-1.6l-8.6,3.9l8.7,3.7l-10-1.5L236.5,93.1z"/>
<path id="path95855-5-2_1_" class="st0" d="M191.6,252.3l-5.5-6l-5.4,6.1l2.2-7l-10,1.6l8.6-3.9l-8.7-3.7l10,1.5l-2.4-6.9l5.5,6
	l5.4-6.1l-2.2,7l10-1.6l-8.6,3.9l8.7,3.7l-10-1.5L191.6,252.3z"/>
<path id="path95855-5-2_2_" class="st0" d="M249.8,284.1l-5.5-6l-5.4,6.1l2.2-7l-10,1.6l8.6-3.9l-8.7-3.7l10,1.5l-2.4-6.9l5.5,6
	l5.4-6.1l-2.2,7l10-1.6l-8.6,3.9l8.7,3.7l-10-1.5L249.8,284.1z"/>
<path id="path95855-5-2_3_" class="st0" d="M293.8,252.3l-5.5-6l-5.4,6.1l2.2-7l-10,1.6l8.6-3.9l-8.7-3.7l10,1.5l-2.4-6.9l5.5,6
	l5.4-6.1l-2.2,7l10-1.6l-8.6,3.9l8.7,3.7l-10-1.5L293.8,252.3z"/>
<path id="path95855-5-2_4_" class="st0" d="M243.6,147.6l-5.5-6l-5.4,6.1l2.2-7l-10,1.6l8.6-3.9l-8.7-3.7l10,1.5l-2.4-6.9l5.5,6
	l5.4-6.1l-2.2,7l10-1.6l-8.6,3.9l8.7,3.7l-10-1.5L243.6,147.6z"/>
<path id="path95855-5-2_5_" class="st0" d="M280.6,138.4l-5.5-6l-5.4,6.1l2.2-7l-10,1.6l8.6-3.9l-8.7-3.7l10,1.5l-2.4-6.9l5.5,6
	l5.4-6.1l-2.2,7l10-1.6l-8.6,3.9l8.7,3.7l-10-1.5L280.6,138.4z"/>
<path id="path95855-5-2_6_" class="st0" d="M184.8,164.2l-5.5-6l-5.4,6.1l2.2-7l-10,1.6l8.6-3.9l-8.7-3.7l10,1.5l-2.4-6.9l5.5,6
	l5.4-6.1l-2.2,7l10-1.6l-8.6,3.9l8.7,3.7l-10-1.5L184.8,164.2z"/>
<path id="path95855-5-2_7_" class="st0" d="M171.6,156.6l-5.5-6l-5.4,6.1l2.2-7l-10,1.6l8.6-3.9l-8.7-3.7l10,1.5l-2.4-6.9l5.5,6
	l5.4-6.1l-2.2,7l10-1.6l-8.6,3.9l8.7,3.7l-10-1.5L171.6,156.6z"/>
</svg>
