<?xml version="1.0" encoding="utf-8"?>
<svg version="1.1" id="Layer_1" xmlns="http://www.w3.org/2000/svg" xmlns:xlink="http://www.w3.org/1999/xlink" x="0px" y="0px"
	 viewBox="0 0 320 320" style="enable-background:new 0 0 320 320;" xml:space="preserve">
<style type="text/css">
	.st0{fill:#BDB9B9;stroke:#F4FAFA;stroke-width:3;stroke-miterlimit:10;}
	.st1{fill:#BDB9B9;stroke:#F4FAFA;stroke-width:2;stroke-miterlimit:10;}
	.st2{fill:#BDB9B9;stroke:#F4FAFA;stroke-width:0.5;stroke-miterlimit:10;}
</style>
<path id="path95855-8" class="st0" d="M122.9,167.7l-16.3-23.9l-15.8,24.2l6.4-27.8l-29.3,6.5l25.3-15.4l-25.6-14.9l29.4,6
	l-6.9-27.7l16.3,23.9l15.8-24.2l-6.4,27.8l29.3-6.5l-25.3,15.4l25.6,14.9l-29.4-6L122.9,167.7z"/>
<path id="path95855-9-4" class="st0" d="M152.1,110.7l-21.7,2.1l12.6,16.7l-17.9-12.3l-3.9,19l-3.6-19.5L99.6,127l12.8-15.2
	l-21.7-4.5l21.7-2.1L99.9,88.5l17.9,12.3l3.9-19l3.6,19.5l18.1-10.3l-12.8,15.2L152.1,110.7z"/>
<path id="path95855-3-4" class="st1" d="M184,206.8l-7-10.5l-6.8,10.6l2.7-12.2l-12.5,2.9l10.8-6.8l-10.9-6.6l12.6,2.6l-3-12.1
	l7,10.5l6.8-10.6l-2.7,12.2l12.5-2.9l-10.8,6.8l10.9,6.6l-12.6-2.6L184,206.8z">
	<animate
	  attributeType="CSS"
	  attributeName="opacity"
	  from=".25"
	  to=".25"
	  dur="5.5s"
	  values=".25; 1; .25"
	  keyTimes="0; 0.5; 1"
	  repeatCount="indefinite" />
</path>
<path id="path95855-3-4_1_" class="st1" d="M103,176l-7-10.5l-6.8,10.6l2.7-12.2l-12.5,2.9l10.8-6.8l-10.9-6.6l12.6,2.6l-3-12.1
	l7,10.5l6.8-10.6l-2.7,12.2l12.5-2.9l-10.8,6.8l10.9,6.6l-12.6-2.6L103,176z"/>
<path id="path95855-3-4_2_" class="st1" d="M231,88.5L224,78l-6.8,10.6l2.7-12.2l-12.5,2.9l10.8-6.8L207.3,66l12.6,2.6l-3-12.1
	l7,10.5l6.8-10.6l-2.7,12.2l12.5-2.9l-10.8,6.8l10.9,6.6L228,76.3L231,88.5z"/>
<path id="path95855-3-4_3_" class="st1" d="M247.6,72.4l-7-10.5l-6.8,10.6l2.7-12.2l-12.5,2.9l10.8-6.8l-10.9-6.6l12.6,2.6l-3-12.1
	l7,10.5l6.8-10.6l-2.7,12.2l12.5-2.9l-10.8,6.8l10.9,6.6l-12.6-2.6L247.6,72.4z">
	<animate
	  attributeType="CSS"
	  attributeName="opacity"
	  from=".25"
	  to=".25"
	  dur="7s"
	  values=".25; 1; .25"
	  keyTimes="0; 0.5; 1"
	  repeatCount="indefinite" />
</path>
<path id="path95855-3-4_4_" class="st1" d="M63,255.1l-7-10.5l-6.8,10.6l2.7-12.2l-12.5,2.9l10.8-6.8l-10.9-6.6l12.6,2.6l-3-12.1
	l7,10.5l6.8-10.6l-2.7,12.2l12.5-2.9l-10.8,6.8l10.9,6.6L60,243L63,255.1z"/>
<path id="path95855-3-4_5_" class="st1" d="M156.6,260.1l-7-10.5l-6.8,10.6l2.7-12.2l-12.5,2.9l10.8-6.8l-10.9-6.6l12.6,2.6l-3-12.1
	l7,10.5l6.8-10.6l-2.7,12.2l12.5-2.9l-10.8,6.8l10.9,6.6l-12.6-2.6L156.6,260.1z"/>
<path id="path95855-3-4_6_" class="st1" d="M240.1,287.4l-7-10.5l-6.8,10.6l2.7-12.2l-12.5,2.9l10.8-6.8l-10.9-6.6l12.6,2.6l-3-12.1
	l7,10.5l6.8-10.6l-2.7,12.2l12.5-2.9l-10.8,6.8l10.9,6.6l-12.6-2.6L240.1,287.4z"/>
<path id="path95855-5-6" class="st2" d="M109.6,225.3l-5.5-6l-5.4,6.1l2.2-7l-10,1.6l8.6-3.9l-8.7-3.7l10,1.5l-2.4-6.9l5.5,6
	l5.4-6.1l-2.2,7l10-1.6l-8.6,3.9l8.7,3.7l-10-1.5L109.6,225.3z">
	<animate
	  attributeType="CSS"
	  attributeName="opacity"
	  from=".25"
	  to=".25"
	  dur="5s"
	  values=".25; 1; .25"
	  keyTimes="0; 0.5; 1"
	  repeatCount="indefinite" />
</path>
</svg>
